<?xml version="1.0" standalone="no"?>
<!DOCTYPE svg PUBLIC "-//W3C//DTD SVG 20010904//EN"
 "http://www.w3.org/TR/2001/REC-SVG-20010904/DTD/svg10.dtd">
<svg version="1.0" xmlns="http://www.w3.org/2000/svg"
 width="360.000000pt" height="329.000000pt" viewBox="0 0 360.000000 329.000000"
 preserveAspectRatio="xMidYMid meet">

<g transform="translate(0.000000,329.000000) scale(0.100000,-0.100000)"
fill="#000000" stroke="none">
<path d="M1350 3174 c-63 -7 -349 -38 -635 -68 -677 -72 -610 -62 -656 -103
-51 -46 -60 -83 -48 -191 5 -48 29 -278 54 -512 25 -233 61 -571 80 -750 19
-179 35 -336 36 -350 0 -23 1 -23 9 -5 6 14 8 8 4 -20 -3 -22 15 -231 40 -464
25 -233 46 -427 46 -431 0 -5 6 -15 13 -22 6 -8 17 -23 23 -33 15 -28 73 -55
118 -55 21 0 248 22 505 49 669 71 609 67 634 43 20 -19 113 -33 792 -125 721
-98 772 -104 803 -90 68 32 70 39 128 472 29 218 58 428 64 467 6 39 8 78 4
87 -3 9 -2 17 3 17 12 0 38 214 28 230 -4 7 -3 15 3 19 6 4 25 108 41 231 17
124 58 425 91 670 34 245 62 470 63 500 2 67 -26 120 -76 143 -33 15 -1418
207 -1497 207 -22 0 -54 -7 -70 -15 -59 -31 -65 -49 -106 -357 -21 -158 -40
-285 -42 -283 -3 2 -15 100 -27 217 -13 117 -29 260 -35 318 -13 118 -32 165
-80 198 -28 19 -45 22 -114 21 -45 -1 -133 -7 -196 -15z m301 -73 c16 -17 29
-39 28 -53 -1 -19 -2 -18 -10 8 -13 46 -34 58 -113 65 l-71 6 68 1 c63 2 71 0
98 -27z m-266 4 c-55 -7 -116 -13 -135 -13 -19 1 6 6 55 13 50 7 110 12 135
12 25 0 0 -5 -55 -12z m-450 -45 c0 -32 -13 -38 -34 -17 -10 10 -14 9 -22 -5
-11 -21 -40 -23 -57 -6 -9 9 -16 8 -30 -5 -23 -21 -36 -22 -28 -2 3 8 1 15 -5
15 -5 0 -12 -7 -15 -15 -4 -8 -10 -15 -16 -15 -5 0 -7 4 -4 8 3 5 -13 9 -34
10 -22 1 -40 -2 -40 -6 0 -4 -21 -5 -47 -3 l-48 5 65 8 c36 4 66 12 68 18 3 7
9 7 20 -2 13 -11 15 -10 9 5 -7 18 7 24 18 7 3 -5 11 -10 16 -10 6 0 8 4 4 9
-10 18 13 21 30 5 15 -15 17 -15 34 0 21 19 42 21 60 4 10 -11 14 -10 22 5 16
27 34 20 34 -13z m40 19 c-4 -6 0 -9 8 -7 9 2 15 -1 14 -7 -1 -5 -8 -9 -15 -7
-8 2 -11 -1 -7 -7 9 -16 -10 -14 -24 2 -8 10 -7 17 1 25 15 15 31 16 23 1z
m218 4 c-13 -2 -35 -2 -50 0 -16 2 -5 4 22 4 28 0 40 -2 28 -4z m-100 -10
c-13 -2 -33 -2 -45 0 -13 2 -3 4 22 4 25 0 35 -2 23 -4z m1177 -75 c134 -18
237 -34 228 -36 -9 -2 -117 11 -240 27 -123 17 -233 31 -245 31 -34 0 -75 -42
-83 -86 l-8 -39 -1 34 c-1 25 7 41 33 67 19 19 42 34 53 34 10 0 128 -14 263
-32z m-1760 12 c-20 -5 -39 -5 -44 1 -6 5 7 9 35 8 l44 -1 -35 -8z m1189 -134
c2 -79 -10 -26 -14 60 -3 76 -3 81 5 34 4 -30 8 -73 9 -94z m-1266 127 c-13
-2 -33 -2 -45 0 -13 2 -3 4 22 4 25 0 35 -2 23 -4z m-100 -10 c-13 -2 -33 -2
-45 0 -13 2 -3 4 22 4 25 0 35 -2 23 -4z m1003 -30 c-8 -15 -15 -25 -16 -21 0
12 23 58 27 54 3 -2 -2 -17 -11 -33z m-1093 20 c-13 -2 -33 -2 -45 0 -13 2 -3
4 22 4 25 0 35 -2 23 -4z m1231 -14 c-3 -5 -10 -7 -15 -3 -5 3 -7 10 -3 15 3
5 10 7 15 3 5 -3 7 -10 3 -15z m-1342 0 c-20 -6 -40 -22 -52 -42 -11 -18 -20
-26 -20 -19 0 23 57 72 82 71 18 -1 16 -3 -10 -10z m2481 -7 c4 10 8 10 16 -2
10 -13 12 -13 21 0 9 13 12 12 25 -4 13 -17 18 -18 40 -6 22 12 27 11 45 -5
16 -14 23 -16 32 -7 17 17 38 15 32 -3 -7 -17 11 -21 21 -5 3 6 11 10 16 10 6
0 7 -5 3 -12 -5 -8 -2 -9 9 -5 10 3 17 2 17 -3 0 -5 12 -11 28 -13 15 -2 8 -4
-15 -3 -32 1 -43 -3 -43 -14 -1 -11 -4 -10 -16 5 -12 17 -16 18 -24 5 -7 -12
-12 -11 -31 5 -16 14 -23 16 -26 8 -7 -19 -44 -16 -59 5 -10 14 -15 15 -25 5
-18 -18 -40 -16 -33 2 7 17 -11 21 -21 5 -3 -5 -11 -10 -16 -10 -6 0 -8 4 -4
9 7 12 -59 26 -74 16 -6 -3 -11 -2 -11 4 0 12 61 19 77 8 6 -4 13 -2 16 5z
m-1933 -64 c0 -19 -16 -5 -17 14 -2 18 0 20 7 8 5 -8 10 -18 10 -22z m2328 -5
c-10 -2 -26 -2 -35 0 -10 3 -2 5 17 5 19 0 27 -2 18 -5z m-1091 -50 c-3 -10
-5 -2 -5 17 0 19 2 27 5 18 2 -10 2 -26 0 -35z m1183 37 c0 -6 -11 -8 -27 -4
-40 10 -41 14 -5 14 18 0 32 -5 32 -10z m58 -7 c-10 -2 -26 -2 -35 0 -10 3 -2
5 17 5 19 0 27 -2 18 -5z m80 -10 c-10 -2 -28 -2 -40 0 -13 2 -5 4 17 4 22 1
32 -1 23 -4z m-3171 -65 c-2 -13 -4 -3 -4 22 0 25 2 35 4 23 2 -13 2 -33 0
-45z m3241 55 c-10 -2 -26 -2 -35 0 -10 3 -2 5 17 5 19 0 27 -2 18 -5z m-618
-13 c0 -5 -4 -10 -10 -10 -5 0 -10 5 -10 10 0 6 5 10 10 10 6 0 10 -4 10 -10z
m688 3 c-10 -2 -26 -2 -35 0 -10 3 -2 5 17 5 19 0 27 -2 18 -5z m-2788 -13 c0
-5 -4 -10 -10 -10 -5 0 -10 5 -10 10 0 6 5 10 10 10 6 0 10 -4 10 -10z m875
-10 c8 0 11 -7 8 -19 -5 -21 -26 -22 -45 -3 -9 9 -9 12 0 12 7 0 12 8 13 18 0
10 3 12 6 5 2 -7 11 -13 18 -13z m1983 13 c-10 -2 -26 -2 -35 0 -10 3 -2 5 17
5 19 0 27 -2 18 -5z m-1741 -65 c-2 -13 -4 -3 -4 22 0 25 2 35 4 23 2 -13 2
-33 0 -45z m1808 36 c14 -15 24 -36 24 -48 -2 -20 -2 -20 -6 1 -2 12 -18 34
-34 48 -17 14 -25 25 -19 25 6 0 22 -12 35 -26z m-1608 -36 c-2 -13 -4 -5 -4
17 -1 22 1 32 4 23 2 -10 2 -28 0 -40z m1333 28 c0 -2 -8 -10 -17 -17 -16 -13
-17 -12 -4 4 13 16 21 21 21 13z m-2847 -31 c-3 -9 -8 -14 -10 -11 -3 3 -2 9
2 15 9 16 15 13 8 -4z m1637 5 c0 -5 -4 -10 -9 -10 -6 0 -13 5 -16 10 -3 6 1
10 9 10 9 0 16 -4 16 -10z m-1953 -62 c-2 -13 -4 -3 -4 22 0 25 2 35 4 23 2
-13 2 -33 0 -45z m2753 52 c0 -5 -2 -10 -4 -10 -3 0 -8 5 -11 10 -3 6 -1 10 4
10 6 0 11 -4 11 -10z m-1113 -82 c-2 -13 -4 -3 -4 22 0 25 2 35 4 23 2 -13 2
-33 0 -45z m180 15 c-3 -10 -5 -2 -5 17 0 19 2 27 5 18 2 -10 2 -26 0 -35z
m-1703 16 c-3 -5 -10 -7 -15 -3 -5 3 -7 10 -3 15 3 5 10 7 15 3 5 -3 7 -10 3
-15z m3136 11 c0 -5 -4 -10 -10 -10 -5 0 -10 5 -10 10 0 6 5 10 10 10 6 0 10
-4 10 -10z m207 -42 c-2 -13 -4 -5 -4 17 -1 22 1 32 4 23 2 -10 2 -28 0 -40z
m-797 22 c0 -5 -5 -10 -11 -10 -5 0 -7 5 -4 10 3 6 8 10 11 10 2 0 4 -4 4 -10z
m-1910 -14 c-7 -7 -14 -6 -21 1 -9 9 -7 12 9 10 14 -1 18 -5 12 -11z m2265
-27 c-4 -5 -12 -9 -18 -8 -9 0 -8 2 1 6 6 2 9 10 6 15 -4 7 -2 8 5 4 6 -4 9
-12 6 -17z m-3008 -51 c-2 -13 -4 -3 -4 22 0 25 2 35 4 23 2 -13 2 -33 0 -45z
m1798 -13 c-4 -36 -10 -64 -12 -61 -3 2 -2 34 2 71 4 36 10 64 12 61 3 -2 2
-34 -2 -71z m-455 61 c0 -3 -4 -8 -10 -11 -5 -3 -10 -1 -10 4 0 6 5 11 10 11
6 0 10 -2 10 -4z m2096 -64 c-11 -10 -14 3 -8 33 l7 30 3 -28 c2 -16 1 -31 -2
-35z m-2578 10 c2 -7 -2 -10 -12 -6 -9 3 -16 11 -16 16 0 13 23 5 28 -10z
m2322 -22 c4 0 6 -8 3 -19 -5 -21 -35 -23 -44 -2 -3 8 2 22 10 31 12 12 17 12
19 3 2 -7 7 -13 12 -13z m-646 4 c3 -8 2 -12 -4 -9 -6 3 -10 10 -10 16 0 14 7
11 14 -7z m-2527 -66 c-2 -13 -4 -3 -4 22 0 25 2 35 4 23 2 -13 2 -33 0 -45z
m1303 58 c0 -2 -7 -6 -15 -10 -8 -3 -15 -1 -15 4 0 6 7 10 15 10 8 0 15 -2 15
-4z m2120 -31 c0 -19 -2 -35 -4 -35 -2 0 -6 16 -8 35 -2 19 0 35 4 35 4 0 8
-16 8 -35z m-1339 -8 c-13 -13 -26 -3 -16 12 3 6 11 8 17 5 6 -4 6 -10 -1 -17z
m-1781 -7 c0 -5 -4 -10 -10 -10 -5 0 -10 5 -10 10 0 6 5 10 10 10 6 0 10 -4
10 -10z m570 -4 c0 -3 -4 -8 -10 -11 -5 -3 -10 -1 -10 4 0 6 5 11 10 11 6 0
10 -2 10 -4z m897 -53 c-3 -10 -5 -2 -5 17 0 19 2 27 5 18 2 -10 2 -26 0 -35z
m-227 6 c0 -5 -4 -9 -10 -9 -5 0 -10 7 -10 16 0 8 5 12 10 9 6 -3 10 -10 10
-16z m1867 -26 c-3 -10 -5 -2 -5 17 0 19 2 27 5 18 2 -10 2 -26 0 -35z m-3400
-25 c-2 -13 -4 -3 -4 22 0 25 2 35 4 23 2 -13 2 -33 0 -45z m1878 53 c3 -5 1
-12 -5 -16 -5 -3 -10 1 -10 9 0 18 6 21 15 7z m735 -6 c0 -8 -2 -15 -4 -15 -2
0 -6 7 -10 15 -3 8 -1 15 4 15 6 0 10 -7 10 -15z m-1754 -147 c38 -55 38 -60
24 -140 -7 -35 -7 -63 -1 -79 7 -17 10 -19 10 -7 1 10 16 35 35 55 42 48 56
75 56 107 0 34 16 33 28 -1 6 -20 5 -43 -5 -77 -20 -69 -32 -146 -22 -146 5 0
9 -8 9 -18 0 -10 13 -28 30 -40 28 -21 30 -21 41 -4 9 15 22 17 75 14 63 -4
65 -4 97 31 37 41 80 61 110 51 20 -6 20 -7 -1 -18 -12 -6 -35 -32 -51 -58
-25 -39 -37 -48 -83 -62 -29 -8 -62 -22 -73 -31 -19 -14 -19 -15 8 -5 42 15
69 12 122 -11 l47 -21 60 23 c57 21 61 21 94 6 40 -19 44 -37 9 -37 -15 0 -44
-18 -75 -45 -56 -50 -62 -51 -140 -30 -30 8 -67 12 -82 9 l-28 -6 41 -34 c31
-26 50 -34 80 -34 69 0 109 -31 109 -82 0 -17 -2 -18 -15 -8 -11 9 -35 11 -78
7 -57 -5 -65 -4 -101 24 -40 30 -91 40 -84 17 2 -7 32 -27 67 -44 70 -34 84
-53 102 -134 8 -39 21 -64 45 -88 37 -37 28 -49 -31 -38 -46 9 -91 48 -113 99
-21 46 -36 61 -69 70 l-22 5 21 -42 c16 -31 52 -185 44 -192 0 -1 -11 2 -24 7
-15 6 -33 31 -51 71 -30 67 -63 104 -81 93 -12 -8 -40 53 -40 89 0 19 -4 23
-20 19 -30 -8 -26 -61 9 -109 35 -48 42 -78 31 -124 -7 -33 -8 -32 -9 20 -1
53 -23 106 -40 96 -3 -3 -8 3 -9 12 -6 62 -19 97 -34 100 -31 5 -23 -58 15
-108 30 -41 32 -51 34 -130 2 -102 9 -130 28 -130 10 0 14 10 13 32 0 18 9 49
21 68 23 38 27 83 11 126 -14 36 -4 44 11 8 18 -45 15 -85 -10 -144 -16 -38
-22 -65 -18 -92 6 -42 5 -43 -23 -28 -35 19 -45 51 -45 145 0 88 -1 91 -37
144 l-38 53 0 -48 c0 -31 -9 -69 -25 -102 -14 -30 -25 -63 -25 -73 0 -24 -9
-24 -26 -1 -16 21 -17 64 -4 114 14 49 -10 146 -27 113 -6 -11 -13 -36 -17
-56 -10 -56 -39 -86 -103 -104 -36 -11 -65 -27 -82 -46 -14 -16 -29 -29 -33
-29 -5 0 -8 20 -8 45 0 42 5 51 64 114 42 45 66 79 71 102 3 19 9 42 12 52 5
18 3 18 -29 2 -18 -10 -47 -28 -65 -41 -37 -28 -79 -31 -105 -7 -26 23 -22 33
14 33 24 0 40 10 70 42 21 23 38 44 38 48 0 16 -109 30 -178 24 -58 -6 -76 -4
-97 10 -29 19 -25 36 8 36 12 0 47 16 77 35 62 40 71 41 146 19 30 -8 59 -14
64 -12 5 2 -7 22 -26 46 -26 31 -43 42 -63 42 -39 0 -81 35 -81 67 0 22 2 24
16 12 16 -13 134 -30 134 -19 -1 27 -56 92 -109 129 -66 46 -95 90 -84 129 9
35 22 25 16 -12 -4 -28 0 -38 28 -65 19 -17 54 -46 78 -64 26 -18 55 -53 71
-82 27 -52 85 -93 115 -81 23 8 18 20 -16 35 -17 7 -43 32 -59 55 -16 22 -39
55 -51 71 -13 18 -8 15 12 -8 98 -111 104 -115 132 -110 25 5 39 23 17 23 -18
0 -81 63 -101 101 -22 44 -37 54 -99 64 -46 7 -120 47 -120 66 0 5 15 -1 32
-14 18 -14 49 -28 68 -32 81 -15 100 -26 126 -71 14 -24 27 -44 29 -44 9 0
-10 102 -26 142 -14 35 -17 53 -10 71 15 39 31 42 31 6 0 -24 10 -42 45 -75
25 -25 48 -57 51 -72 9 -38 34 -85 41 -78 4 3 12 1 19 -5 8 -6 20 -9 29 -6 13
5 12 11 -1 44 -16 38 -16 56 6 183 5 33 8 37 9 16 0 -16 -4 -56 -10 -90 -14
-76 3 -139 38 -144 22 -3 22 -3 7 40 -11 32 -13 63 -8 125 6 80 6 85 -21 123
-15 22 -31 54 -35 72 -6 28 -8 30 -15 14 -5 -11 -3 -44 3 -74 10 -48 9 -67 -9
-141 -13 -52 -18 -99 -14 -120 4 -26 3 -32 -4 -21 -16 22 -13 84 5 148 12 39
14 70 9 106 -11 74 -8 106 12 129 18 19 18 19 21 -18 2 -22 17 -58 38 -87z
m891 70 c-2 -13 -4 -5 -4 17 -1 22 1 32 4 23 2 -10 2 -28 0 -40z m-1630 16
c-9 -9 -28 6 -21 18 4 6 10 6 17 -1 6 -6 8 -13 4 -17z m3270 -31 c-3 -10 -5
-2 -5 17 0 19 2 27 5 18 2 -10 2 -26 0 -35z m-1412 -5 c-8 -20 -42 -20 -42 0
0 9 5 21 11 28 13 14 38 -8 31 -28z m1115 32 c0 -5 -5 -10 -11 -10 -5 0 -7 5
-4 10 3 6 8 10 11 10 2 0 4 -4 4 -10z m-3083 -82 c-2 -13 -4 -3 -4 22 0 25 2
35 4 23 2 -13 2 -33 0 -45z m230 20 c-1 -10 -7 -16 -14 -14 -6 3 -14 0 -17 -7
-2 -7 -5 -4 -5 6 -1 9 -7 17 -13 18 -10 0 -10 2 0 6 6 2 12 11 12 19 0 11 4
12 19 2 11 -6 19 -20 18 -30z m1500 -25 c-3 -10 -5 -2 -5 17 0 19 2 27 5 18 2
-10 2 -26 0 -35z m858 37 c3 -6 -1 -7 -9 -4 -18 7 -21 14 -7 14 6 0 13 -4 16
-10z m782 -52 c-2 -13 -4 -5 -4 17 -1 22 1 32 4 23 2 -10 2 -28 0 -40z m-3360
-70 c-2 -13 -4 -3 -4 22 0 25 2 35 4 23 2 -13 2 -33 0 -45z m1126 36 c-3 -8
-9 -14 -13 -14 -13 0 -22 19 -15 30 9 14 34 0 28 -16z m584 -21 c-3 -10 -5 -2
-5 17 0 19 2 27 5 18 2 -10 2 -26 0 -35z m683 27 c0 -5 -4 -10 -10 -10 -5 0
-10 5 -10 10 0 6 5 10 10 10 6 0 10 -4 10 -10z m-1673 -26 c-9 -9 -28 6 -21
18 4 6 10 6 17 -1 6 -6 8 -13 4 -17z m542 -3 c-20 -21 -29 -39 -29 -62 0 -57
-36 -114 -96 -154 -31 -21 -57 -35 -60 -32 -3 2 18 19 46 37 63 41 78 63 94
139 12 56 11 59 -5 50 -10 -5 -31 -26 -46 -47 -37 -51 -62 -70 -107 -83 -21
-6 -49 -22 -62 -36 -13 -14 -24 -22 -24 -16 0 17 44 49 94 68 37 13 56 28 80
64 46 68 84 101 116 101 l28 0 -29 -29z m2088 -18 c-3 -10 -5 -2 -5 17 0 19 2
27 5 18 2 -10 2 -26 0 -35z m-1944 -12 c-6 -3 -13 -13 -16 -21 -4 -12 -6 -11
-6 3 -1 9 -9 17 -18 18 -11 0 -13 3 -5 6 6 2 12 13 12 24 0 18 1 18 21 -2 12
-12 17 -24 12 -28z m299 -26 c2 -19 0 -35 -4 -35 -4 0 -8 16 -8 35 0 19 2 35
4 35 2 0 6 -16 8 -35z m528 25 c0 -5 -4 -10 -10 -10 -5 0 -10 5 -10 10 0 6 5
10 10 10 6 0 10 -4 10 -10z m-2223 -72 c-2 -13 -4 -3 -4 22 0 25 2 35 4 23 2
-13 2 -33 0 -45z m3234 49 c-1 -12 -15 -9 -19 4 -3 6 1 10 8 8 6 -3 11 -8 11
-12z m96 -39 c-2 -13 -4 -5 -4 17 -1 22 1 32 4 23 2 -10 2 -28 0 -40z m-2510
-45 c-2 -16 -4 -3 -4 27 0 30 2 43 4 28 2 -16 2 -40 0 -55z m2083 37 c0 -5 -4
-10 -10 -10 -5 0 -10 5 -10 10 0 6 5 10 10 10 6 0 10 -4 10 -10z m-1756 -41
c-16 -17 -49 -40 -74 -51 -25 -10 -53 -29 -63 -41 l-18 -22 11 23 c7 14 34 34
64 47 30 13 64 37 77 53 13 16 26 28 28 26 3 -3 -9 -18 -25 -35z m533 -6 c-3
-10 -5 -2 -5 17 0 19 2 27 5 18 2 -10 2 -26 0 -35z m1640 -20 c-3 -10 -5 -2
-5 17 0 19 2 27 5 18 2 -10 2 -26 0 -35z m-3310 -35 c-2 -13 -4 -3 -4 22 0 25
2 35 4 23 2 -13 2 -33 0 -45z m1713 52 c0 -5 -4 -10 -10 -10 -5 0 -10 5 -10
10 0 6 5 10 10 10 6 0 10 -4 10 -10z m900 0 c0 -5 -5 -10 -11 -10 -5 0 -7 5
-4 10 3 6 8 10 11 10 2 0 4 -4 4 -10z m-953 -72 c-2 -13 -4 -5 -4 17 -1 22 1
32 4 23 2 -10 2 -28 0 -40z m-1344 25 c11 -10 -13 -32 -29 -26 -11 4 -12 9 -3
19 13 15 22 18 32 7z m1788 -50 c-13 -9 -17 -9 -19 3 -2 8 -8 14 -13 14 -5 0
-1 8 9 18 16 17 17 16 28 -3 8 -15 6 -23 -5 -32z m633 42 c-4 -8 -11 -12 -16
-9 -6 4 -5 10 3 15 19 12 19 11 13 -6z m563 -32 c-3 -10 -5 -2 -5 17 0 19 2
27 5 18 2 -10 2 -26 0 -35z m-1436 24 c-1 -12 -15 -9 -19 4 -3 6 1 10 8 8 6
-3 11 -8 11 -12z m782 -16 c26 -12 47 -24 47 -28 0 -3 -18 -3 -41 1 -53 9
-156 -10 -205 -37 -45 -26 -99 -100 -115 -160 -16 -59 -6 -163 21 -219 72
-154 261 -227 400 -155 l55 28 -40 -41 c-116 -119 -327 -133 -475 -31 -66 46
-133 139 -156 218 -39 133 25 294 150 380 107 73 255 92 359 44z m-2603 -1 c0
-5 -2 -10 -4 -10 -3 0 -8 5 -11 10 -3 6 -1 10 4 10 6 0 11 -4 11 -10z m-33
-62 c-2 -13 -4 -3 -4 22 0 25 2 35 4 23 2 -13 2 -33 0 -45z m200 36 c-9 -9
-28 6 -21 18 4 6 10 6 17 -1 6 -6 8 -13 4 -17z m1457 -46 c7 -5 5 -8 -6 -8
-14 0 -18 8 -17 33 2 27 2 28 6 7 3 -14 10 -28 17 -32z m-1043 25 c13 -16 12
-17 -3 -4 -10 7 -18 15 -18 17 0 8 8 3 21 -13z m2664 -58 c-4 -36 -10 -64 -12
-61 -3 3 -2 35 2 71 4 37 9 64 12 62 3 -3 2 -35 -2 -72z m-221 44 c-3 -5 -10
-7 -15 -3 -5 3 -7 10 -3 15 3 5 10 7 15 3 5 -3 7 -10 3 -15z m-314 -5 c0 -2
-7 -4 -15 -4 -8 0 -15 4 -15 10 0 5 7 7 15 4 8 -4 15 -8 15 -10z m-1030 -8 c0
-3 -4 -8 -10 -11 -5 -3 -10 -1 -10 4 0 6 5 11 10 11 6 0 10 -2 10 -4z m-1689
-76 c6 0 7 -4 4 -10 -14 -23 -25 -7 -23 33 1 36 2 38 5 10 2 -18 9 -33 14 -33z
m1606 13 c-3 -10 -5 -2 -5 17 0 19 2 27 5 18 2 -10 2 -26 0 -35z m-1287 -4 c0
-5 -7 -9 -15 -9 -15 0 -20 12 -9 23 8 8 24 -1 24 -14z m1620 11 c0 -5 -4 -10
-9 -10 -6 0 -13 5 -16 10 -3 6 1 10 9 10 9 0 16 -4 16 -10z m870 -10 c0 -5 -4
-10 -10 -10 -5 0 -10 5 -10 10 0 6 5 10 10 10 6 0 10 -4 10 -10z m-2750 -4 c0
-3 -4 -8 -10 -11 -5 -3 -10 -1 -10 4 0 6 5 11 10 11 6 0 10 -2 10 -4z m1537
-69 c-3 -29 -1 -61 4 -70 8 -13 6 -17 -7 -17 -14 0 -16 7 -10 46 3 26 6 57 6
70 0 13 3 24 6 24 4 0 4 -24 1 -53z m1642 -25 c-5 -13 -9 -37 -9 -54 0 -17 -3
-29 -6 -25 -3 3 -2 36 2 74 5 46 9 62 14 48 4 -11 3 -30 -1 -43z m-3242 -14
c-2 -13 -4 -3 -4 22 0 25 2 35 4 23 2 -13 2 -33 0 -45z m2532 -49 c-8 -5 -20
-2 -31 8 -17 15 -17 17 -1 28 15 11 20 10 32 -7 11 -17 11 -22 0 -29z m-1159
16 c0 -8 -4 -15 -9 -15 -13 0 -22 16 -14 24 11 11 23 6 23 -9z m-1350 -80 c4
-16 0 -89 -4 -84 -3 3 -7 43 -10 89 -3 56 -2 71 3 45 4 -22 9 -44 11 -50z
m1768 44 c-7 -4 -18 -3 -26 3 -10 9 -10 13 0 19 7 4 18 3 26 -3 10 -9 10 -13
0 -19z m1122 0 c0 -5 -4 -9 -10 -9 -5 0 -10 7 -10 16 0 8 5 12 10 9 6 -3 10
-10 10 -16z m254 6 c3 -8 1 -15 -4 -15 -6 0 -10 7 -10 15 0 8 2 15 4 15 2 0 6
-7 10 -15z m-1589 -82 c-4 -30 -9 -52 -12 -50 -2 3 -1 36 3 74 4 37 10 60 12
49 2 -10 1 -43 -3 -73z m1638 6 c-5 -5 -7 7 -4 29 5 34 6 35 9 8 2 -16 0 -32
-5 -37z m-1521 -4 c0 -5 -5 -11 -11 -13 -6 -2 -11 4 -11 13 0 9 5 15 11 13 6
-2 11 -8 11 -13z m183 -15 c3 -5 1 -10 -4 -10 -6 0 -11 5 -11 10 0 6 2 10 4
10 3 0 8 -4 11 -10z m1330 -62 c-7 -78 -32 -230 -34 -204 -1 24 31 266 36 266
2 0 1 -28 -2 -62z m-3065 17 c0 -8 -4 -15 -9 -15 -13 0 -22 16 -14 24 11 11
23 6 23 -9z m2590 5 c0 -5 -4 -10 -9 -10 -6 0 -13 5 -16 10 -3 6 1 10 9 10 9
0 16 -4 16 -10z m-2700 -57 c0 -25 -2 -44 -4 -42 -8 10 -13 89 -5 89 5 0 9
-21 9 -47z m1527 0 c-3 -10 -5 -2 -5 17 0 19 2 27 5 18 2 -10 2 -26 0 -35z
m1473 10 c0 -7 -6 -12 -12 -10 -20 3 -27 19 -15 32 13 14 27 2 27 -22z m-1482
-111 c-5 -2 -8 -18 -8 -34 0 -17 -3 -29 -6 -25 -3 3 -2 36 2 74 8 63 9 65 14
28 3 -22 2 -41 -2 -43z m1612 68 c0 -5 -5 -10 -11 -10 -5 0 -7 5 -4 10 3 6 8
10 11 10 2 0 4 -4 4 -10z m-3123 -82 c-2 -13 -4 -3 -4 22 0 25 2 35 4 23 2
-13 2 -33 0 -45z m3093 -37 c0 -6 -4 -13 -10 -16 -5 -3 -10 1 -10 9 0 9 5 16
10 16 6 0 10 -4 10 -9z m-3078 -51 c-7 -45 -18 -36 -14 11 3 23 8 36 11 30 4
-6 6 -25 3 -41z m1478 -17 c-5 -21 -11 -66 -15 -101 -4 -35 -9 -61 -12 -59 -7
8 19 207 27 202 5 -3 4 -22 0 -42z m1637 -20 c-3 -10 -5 -2 -5 17 0 19 2 27 5
18 2 -10 2 -26 0 -35z m-1787 21 c0 -8 -5 -12 -10 -9 -6 4 -8 11 -5 16 9 14
15 11 15 -7z m107 -16 c-3 -8 -6 -5 -6 6 -1 11 2 17 5 13 3 -3 4 -12 1 -19z
m1483 2 c0 -5 -4 -10 -10 -10 -5 0 -10 5 -10 10 0 6 5 10 10 10 6 0 10 -4 10
-10z m-2908 -67 c-7 -36 -12 -27 -11 20 0 30 3 36 8 23 4 -11 6 -30 3 -43z
m3095 -15 c-2 -13 -4 -5 -4 17 -1 22 1 32 4 23 2 -10 2 -28 0 -40z m-1133 -10
c-3 -4 -12 -8 -20 -8 -17 0 -19 27 -1 33 14 5 28 -13 21 -25z m766 -8 c4 -3
-1 -14 -11 -24 -17 -17 -19 -18 -19 -3 0 9 -4 17 -10 17 -5 0 -2 8 8 18 10 10
19 13 21 7 2 -5 7 -12 11 -15z m-2720 -40 c0 -22 -2 -40 -4 -40 -2 0 -6 18 -8
40 -2 22 0 40 4 40 5 0 8 -18 8 -40z m3079 -2 c0 -27 -2 -29 -8 -13 -5 11 -6
26 -4 33 8 21 13 13 12 -20z m-2459 -9 c0 -5 -4 -9 -10 -9 -5 0 -10 7 -10 16
0 8 5 12 10 9 6 -3 10 -10 10 -16z m1565 1 c3 -5 -1 -10 -9 -10 -9 0 -16 5
-16 10 0 6 4 10 9 10 6 0 13 -4 16 -10z m274 -4 c9 -11 8 -15 -5 -20 -18 -7
-37 11 -28 26 8 12 20 10 33 -6z m-1032 -58 c-2 -13 -4 -5 -4 17 -1 22 1 32 4
23 2 -10 2 -28 0 -40z m1640 -15 c-3 -10 -5 -2 -5 17 0 19 2 27 5 18 2 -10 2
-26 0 -35z m-2037 27 c0 -5 -7 -10 -15 -10 -8 0 -15 5 -15 10 0 6 7 10 15 10
8 0 15 -4 15 -10z m-1023 -62 c-2 -13 -4 -3 -4 22 0 25 2 35 4 23 2 -13 2 -33
0 -45z m477 21 c-3 -5 -10 -7 -15 -3 -5 3 -7 10 -3 15 3 5 10 7 15 3 5 -3 7
-10 3 -15z m2506 11 c0 -5 -4 -10 -10 -10 -5 0 -10 5 -10 10 0 6 5 10 10 10 6
0 10 -4 10 -10z m-1230 -30 c4 0 6 -8 3 -18 -2 -10 -13 -18 -24 -18 -12 0 -18
5 -15 13 3 7 1 13 -4 13 -6 0 -2 8 8 18 12 13 18 14 20 5 2 -7 7 -13 12 -13z
m-930 10 c0 -5 -4 -10 -10 -10 -5 0 -10 5 -10 10 0 6 5 10 10 10 6 0 10 -4 10
-10z m587 -37 c-3 -10 -5 -2 -5 17 0 19 2 27 5 18 2 -10 2 -26 0 -35z m1659
25 c4 -7 3 -8 -4 -4 -8 5 -12 -4 -13 -26 -1 -25 -3 -27 -6 -10 -5 23 2 52 11
52 3 0 8 -5 12 -12z m-1856 -27 c0 -6 -4 -13 -10 -16 -5 -3 -10 1 -10 9 0 9 5
16 10 16 6 0 10 -4 10 -9z m-1203 -63 c-2 -13 -4 -3 -4 22 0 25 2 35 4 23 2
-13 2 -33 0 -45z m3009 39 c-1 -7 -7 -21 -14 -32 -10 -18 -11 -18 -12 -2 0 9
-4 17 -9 17 -5 0 -7 8 -4 19 5 20 42 18 39 -2z m-1621 -72 c-4 -36 -10 -64
-12 -61 -3 2 -2 34 2 71 4 36 10 64 12 61 3 -2 2 -34 -2 -71z m1456 42 c-13
-13 -26 -3 -16 12 3 6 11 8 17 5 6 -4 6 -10 -1 -17z m186 -34 c-3 -10 -5 -2
-5 17 0 19 2 27 5 18 2 -10 2 -26 0 -35z m-2377 23 c0 -3 -4 -8 -10 -11 -5 -3
-10 -1 -10 4 0 6 5 11 10 11 6 0 10 -2 10 -4z m1713 -46 c6 0 2 -6 -8 -14 -17
-12 -21 -12 -31 2 -8 11 -7 19 5 31 15 15 16 15 19 -1 2 -10 8 -18 15 -18z
m212 20 c-3 -5 -10 -10 -16 -10 -5 0 -9 5 -9 10 0 6 7 10 16 10 8 0 12 -4 9
-10z m-2568 -62 c-2 -13 -4 -3 -4 22 0 25 2 35 4 23 2 -13 2 -33 0 -45z m3010
-10 c-2 -13 -4 -5 -4 17 -1 22 1 32 4 23 2 -10 2 -28 0 -40z m-2933 -10 c-3
-4 0 -8 5 -8 8 0 7 -6 -1 -19 -9 -16 -14 -17 -25 -6 -19 20 -16 41 6 41 11 0
17 -4 15 -8z m1978 -20 c-10 -10 -15 -10 -22 2 -6 9 -5 17 3 22 18 11 33 -10
19 -24z m-695 -25 c-3 -10 -5 -2 -5 17 0 19 2 27 5 18 2 -10 2 -26 0 -35z
m-1350 -35 c-2 -13 -4 -3 -4 22 0 25 2 35 4 23 2 -13 2 -33 0 -45z m2990 15
c-3 -10 -5 -2 -5 17 0 19 2 27 5 18 2 -10 2 -26 0 -35z m-2534 -20 c-5 -14
-24 -13 -35 1 -3 5 -1 14 5 21 14 14 37 -3 30 -22z m2142 27 c-3 -5 -11 -10
-16 -10 -6 0 -7 5 -4 10 3 6 11 10 16 10 6 0 7 -4 4 -10z m-1817 -11 c-2 -6
-8 -10 -13 -10 -5 0 -11 4 -13 10 -2 6 4 11 13 11 9 0 15 -5 13 -11z m559 -51
c-2 -13 -4 -5 -4 17 -1 22 1 32 4 23 2 -10 2 -28 0 -40z m1638 -43 c-4 -36
-10 -64 -12 -61 -3 2 -2 34 2 71 4 36 10 64 12 61 3 -2 2 -34 -2 -71z m-185
55 c0 -5 -4 -10 -10 -10 -5 0 -10 5 -10 10 0 6 5 10 10 10 6 0 10 -4 10 -10z
m-2783 -62 c-2 -13 -4 -3 -4 22 0 25 2 35 4 23 2 -13 2 -33 0 -45z m1320 -25
c-3 -10 -5 -2 -5 17 0 19 2 27 5 18 2 -10 2 -26 0 -35z m483 17 c0 -5 -4 -10
-9 -10 -6 0 -13 5 -16 10 -3 6 1 10 9 10 9 0 16 -4 16 -10z m-1793 -87 c-2
-16 -4 -5 -4 22 0 28 2 40 4 28 2 -13 2 -35 0 -50z m1298 -28 c-4 -36 -10 -64
-12 -61 -3 2 -2 34 2 71 4 36 10 64 12 61 3 -2 2 -34 -2 -71z m1599 59 c12
-12 13 -18 4 -28 -16 -17 -37 1 -30 26 5 22 7 22 26 2z m43 -51 c-3 -10 -5 -2
-5 17 0 19 2 27 5 18 2 -10 2 -26 0 -35z m-582 27 c3 -5 -1 -10 -10 -10 -9 0
-13 5 -10 10 3 6 8 10 10 10 2 0 7 -4 10 -10z m-2290 -10 c3 -5 1 -10 -4 -10
-6 0 -11 5 -11 10 0 6 2 10 4 10 3 0 8 -4 11 -10z m1975 2 c0 -13 -12 -22 -22
-16 -10 6 -1 24 13 24 5 0 9 -4 9 -8z m-715 -11 c3 -5 1 -12 -5 -16 -5 -3 -10
1 -10 9 0 18 6 21 15 7z m-1318 -83 c-2 -13 -4 -3 -4 22 0 25 2 35 4 23 2 -13
2 -33 0 -45z m753 52 c0 -5 -5 -10 -11 -10 -5 0 -7 5 -4 10 3 6 8 10 11 10 2
0 4 -4 4 -10z m2167 -52 c-2 -13 -4 -5 -4 17 -1 22 1 32 4 23 2 -10 2 -28 0
-40z m-2887 -9 c0 -6 -4 -7 -10 -4 -5 3 -10 11 -10 16 0 6 5 7 10 4 6 -3 10
-11 10 -16z m1100 -9 c0 -5 -2 -10 -4 -10 -3 0 -8 5 -11 10 -3 6 -1 10 4 10 6
0 11 -4 11 -10z m166 -114 c14 -13 38 -27 52 -29 l27 -4 -28 -2 c-20 -1 -38 8
-58 28 -25 26 -29 36 -27 83 l2 53 3 -52 c3 -38 10 -58 29 -77z m-1289 42 c-2
-13 -4 -3 -4 22 0 25 2 35 4 23 2 -13 2 -33 0 -45z m703 52 c0 -5 -5 -10 -11
-10 -5 0 -7 5 -4 10 3 6 8 10 11 10 2 0 4 -4 4 -10z m1320 0 c0 -5 -5 -10 -11
-10 -5 0 -7 5 -4 10 3 6 8 10 11 10 2 0 4 -4 4 -10z m877 -37 c-3 -10 -5 -2
-5 17 0 19 2 27 5 18 2 -10 2 -26 0 -35z m-2347 21 c0 -8 -4 -12 -10 -9 -5 3
-10 10 -10 16 0 5 5 9 10 9 6 0 10 -7 10 -16z m2235 -4 c3 -5 1 -10 -4 -10 -6
0 -11 5 -11 10 0 6 2 10 4 10 3 0 8 -4 11 -10z m-325 -15 c0 -8 -4 -15 -10
-15 -5 0 -10 7 -10 15 0 8 5 15 10 15 6 0 10 -7 10 -15z m-1663 -1 c-3 -3 -12
-4 -19 -1 -8 3 -5 6 6 6 11 1 17 -2 13 -5z m1013 -24 c0 -5 -4 -10 -10 -10 -5
0 -10 5 -10 10 0 6 5 10 10 10 6 0 10 -4 10 -10z m-873 -14 c-5 -11 8 -13 66
-10 80 3 73 -1 -16 -11 -31 -4 -55 -11 -52 -16 4 -5 1 -9 -5 -9 -17 0 -23 29
-10 45 16 19 24 19 17 1z m1948 -61 c-4 -36 -10 -64 -12 -61 -3 2 -2 34 2 71
4 36 10 64 12 61 3 -2 2 -34 -2 -71z m-2034 35 c6 0 8 4 5 9 -3 5 1 12 10 15
20 8 39 8 31 0 -3 -3 -2 -17 3 -30 7 -18 6 -24 -4 -24 -8 0 -16 -3 -19 -7 -2
-5 -2 -2 -1 5 5 20 -27 27 -38 9 -11 -20 -39 -22 -56 -5 -9 9 -16 8 -30 -5
-25 -23 -27 -22 -28 18 -1 36 -1 36 23 20 22 -15 26 -15 36 -2 17 21 41 26 50
11 4 -8 13 -14 18 -14z m369 20 c0 -5 -5 -10 -11 -10 -5 0 -7 5 -4 10 3 6 8
10 11 10 2 0 4 -4 4 -10z m740 0 c0 -5 -4 -10 -10 -10 -5 0 -10 5 -10 10 0 6
5 10 10 10 6 0 10 -4 10 -10z m-1953 -32 c-3 -7 -5 -2 -5 12 0 14 2 19 5 13 2
-7 2 -19 0 -25z m700 -22 c-4 -9 -11 -16 -17 -16 -6 0 -9 4 -6 8 3 5 -8 9 -25
10 -36 1 -54 12 -20 12 15 0 20 4 15 13 -6 10 -4 10 7 0 19 -18 29 -16 22 5
-5 16 -5 16 12 0 10 -9 15 -23 12 -32z m293 4 c0 -5 -4 -10 -10 -10 -5 0 -10
5 -10 10 0 6 5 10 10 10 6 0 10 -4 10 -10z m-899 -49 c40 -8 41 -9 11 -10 -39
-1 -87 21 -96 46 -6 14 -2 13 17 -5 13 -12 44 -26 68 -31z m487 42 c-10 -2
-28 -2 -40 0 -13 2 -5 4 17 4 22 1 32 -1 23 -4z m830 0 c-10 -2 -26 -2 -35 0
-10 3 -2 5 17 5 19 0 27 -2 18 -5z m629 1 c-3 -3 -12 -4 -19 -1 -8 3 -5 6 6 6
11 1 17 -2 13 -5z m-1554 -11 c-13 -2 -33 -2 -45 0 -13 2 -3 4 22 4 25 0 35
-2 23 -4z m1005 0 c-10 -2 -28 -2 -40 0 -13 2 -5 4 17 4 22 1 32 -1 23 -4z
m-1095 -10 c-13 -2 -33 -2 -45 0 -13 2 -3 4 22 4 25 0 35 -2 23 -4z m1165 0
c-10 -2 -26 -2 -35 0 -10 3 -2 5 17 5 19 0 27 -2 18 -5z m-1265 -10 c-13 -2
-33 -2 -45 0 -13 2 -3 4 22 4 25 0 35 -2 23 -4z m1335 0 c-10 -2 -26 -2 -35 0
-10 3 -2 5 17 5 19 0 27 -2 18 -5z m-1425 -10 c-13 -2 -33 -2 -45 0 -13 2 -3
4 22 4 25 0 35 -2 23 -4z m1505 0 c-10 -2 -28 -2 -40 0 -13 2 -5 4 17 4 22 1
32 -1 23 -4z m1107 -3 c-3 -5 -11 -10 -16 -10 -6 0 -7 5 -4 10 3 6 11 10 16
10 6 0 7 -4 4 -10z m-1037 -7 c-10 -2 -26 -2 -35 0 -10 3 -2 5 17 5 19 0 27
-2 18 -5z m144 -5 c7 -19 -2 -38 -18 -38 -9 0 -12 5 -8 12 5 8 2 9 -9 5 -12
-4 -17 -1 -17 9 0 10 6 14 15 10 8 -3 15 -1 15 4 0 14 17 12 22 -2z m47 -5 c8
-14 13 -15 33 -6 46 22 59 24 56 6 -2 -9 3 -18 10 -20 6 -3 12 0 12 6 0 6 9
11 20 11 13 0 18 -5 14 -15 -4 -8 -1 -15 5 -15 6 0 11 5 11 10 0 6 6 10 13 10
9 0 12 -10 9 -32 -4 -27 -6 -29 -17 -15 -15 21 -25 22 -25 2 0 -9 -6 -12 -15
-9 -8 4 -15 12 -15 20 0 8 -7 14 -15 14 -8 0 -15 -4 -15 -10 0 -17 -42 -11
-56 8 -10 14 -15 15 -25 5 -22 -22 -36 -15 -31 17 5 34 16 38 31 13z m-121 0
c-10 -2 -26 -2 -35 0 -10 3 -2 5 17 5 19 0 27 -2 18 -5z m983 -95 c-27 -24
-39 -28 -89 -26 l-57 1 63 6 c52 5 67 11 82 31 11 14 20 36 21 50 2 22 3 22 6
-5 4 -23 -2 -35 -26 -57z m-635 52 c8 0 14 6 14 13 0 8 3 8 9 -2 5 -8 29 -18
53 -22 28 -5 18 -6 -32 -2 -83 6 -85 6 -74 24 6 10 9 10 12 1 2 -7 10 -12 18
-12z m172 -27 c-10 -2 -26 -2 -35 0 -10 3 -2 5 17 5 19 0 27 -2 18 -5z m70
-10 c-10 -2 -26 -2 -35 0 -10 3 -2 5 17 5 19 0 27 -2 18 -5z m80 -10 c-10 -2
-28 -2 -40 0 -13 2 -5 4 17 4 22 1 32 -1 23 -4z m70 -10 c-10 -2 -26 -2 -35 0
-10 3 -2 5 17 5 19 0 27 -2 18 -5z m80 -10 c-10 -2 -28 -2 -40 0 -13 2 -5 4
17 4 22 1 32 -1 23 -4z"/>
<path d="M1080 2170 c-6 -11 -8 -20 -6 -20 3 0 10 9 16 20 6 11 8 20 6 20 -3
0 -10 -9 -16 -20z"/>
<path d="M786 2157 c3 -10 9 -15 12 -12 3 3 0 11 -7 18 -10 9 -11 8 -5 -6z"/>
<path d="M1050 2119 c-7 -11 -10 -23 -7 -25 2 -2 9 7 15 21 14 30 7 33 -8 4z"/>
<path d="M801 2104 c0 -11 3 -14 6 -6 3 7 2 16 -1 19 -3 4 -6 -2 -5 -13z"/>
<path d="M944 2011 c-48 -12 -92 -42 -120 -83 -139 -199 120 -435 302 -275
127 111 80 315 -82 356 -47 12 -55 12 -100 2z"/>
<path d="M1360 1992 c0 -6 -12 -18 -27 -26 -16 -8 -23 -15 -17 -16 18 0 60 37
52 46 -5 4 -8 2 -8 -4z"/>
<path d="M1253 1953 c9 -2 23 -2 30 0 6 3 -1 5 -18 5 -16 0 -22 -2 -12 -5z"/>
<path d="M687 1879 c12 -12 24 -21 27 -18 2 2 -8 13 -22 23 l-27 19 22 -24z"/>
<path d="M1248 1883 c-42 -17 -53 -46 -15 -40 12 2 16 2 9 0 -7 -3 -9 -9 -6
-15 4 -7 2 -8 -4 -4 -7 4 -12 1 -12 -9 0 -11 6 -15 18 -11 52 15 90 16 131 2
70 -25 94 -21 134 23 19 21 43 44 54 50 15 10 11 11 -22 7 -22 -2 -59 -10 -82
-17 -39 -12 -47 -11 -88 9 -53 26 -67 26 -117 5z m101 -43 c54 -19 62 -20 95
-6 20 8 38 11 41 6 6 -9 -48 -30 -79 -30 -22 0 -150 49 -129 50 7 0 40 -9 72
-20z"/>
<path d="M517 1805 c-37 -19 -88 -60 -64 -52 11 4 16 3 12 -3 -3 -6 -20 -10
-37 -10 -17 0 -28 -3 -24 -7 4 -5 53 -8 109 -9 56 0 129 -4 162 -8 52 -7 63
-6 84 11 36 29 19 45 -28 26 -36 -14 -45 -14 -98 1 -52 14 -53 15 -13 9 25 -3
57 -6 72 -6 33 0 78 28 78 48 0 14 -3 14 -30 0 -37 -19 -74 -19 -136 0 -60 18
-53 18 -87 0z m8 -15 c-3 -5 -16 -15 -28 -21 -19 -9 -19 -8 3 10 28 23 34 26
25 11z m-8 -46 c-3 -3 -12 -4 -19 -1 -8 3 -5 6 6 6 11 1 17 -2 13 -5z m186
-21 c-7 -2 -19 -2 -25 0 -7 3 -2 5 12 5 14 0 19 -2 13 -5z"/>
<path d="M728 1683 c7 -3 16 -2 19 1 4 3 -2 6 -13 5 -11 0 -14 -3 -6 -6z"/>
<path d="M1170 1675 c-15 -19 9 -61 43 -75 12 -4 37 -14 56 -21 24 -9 39 -24
51 -52 14 -32 19 -36 23 -21 5 17 6 17 4 -1 0 -11 7 -34 16 -52 20 -38 8 -51
-20 -20 -28 30 -40 52 -23 42 9 -6 10 -1 5 16 -13 45 -42 74 -91 91 -59 21
-57 21 -48 6 6 -10 3 -9 -8 0 -9 8 -15 19 -13 25 3 7 1 19 -5 27 -7 12 -12 12
-22 2 -22 -22 11 -65 64 -82 58 -19 76 -35 95 -82 14 -36 64 -88 83 -88 5 0 6
7 3 17 -5 11 -3 14 6 9 9 -6 9 0 -2 20 -8 16 -18 47 -22 69 -12 68 -30 91 -90
115 -30 12 -64 33 -74 46 -16 21 -20 22 -31 9z m131 -157 c15 -28 5 -21 -21
15 -15 20 -17 27 -6 18 9 -8 22 -23 27 -33z m37 17 c-3 -3 -9 2 -12 12 -6 14
-5 15 5 6 7 -7 10 -15 7 -18z"/>
<path d="M1339 1677 c5 -5 21 -7 37 -5 27 3 26 4 -8 9 -22 3 -34 1 -29 -4z"/>
<path d="M786 1655 c-9 -9 -20 -35 -26 -58 -19 -75 -43 -118 -87 -155 -28 -24
-45 -48 -49 -70 l-7 -33 34 20 c19 10 53 25 77 32 41 12 82 48 82 73 0 35 26
94 52 118 30 28 30 29 12 43 -37 28 -51 15 -77 -76 -9 -30 -27 -64 -39 -75
l-23 -19 18 21 c10 12 27 50 37 84 10 33 24 67 30 75 12 14 6 35 -10 35 -5 0
-16 -7 -24 -15z m-56 -199 c0 -2 -8 -10 -17 -17 -16 -13 -17 -12 -4 4 13 16
21 21 21 13z"/>
<path d="M903 1555 c-3 -9 -3 -18 -1 -21 3 -3 8 4 11 16 6 23 -1 27 -10 5z"/>
<path d="M1115 1550 c10 -11 20 -20 23 -20 3 0 -3 9 -13 20 -10 11 -20 20 -23
20 -3 0 3 -9 13 -20z"/>
<path d="M1165 1510 c10 -11 20 -20 23 -20 3 0 -3 9 -13 20 -10 11 -20 20 -23
20 -3 0 3 -9 13 -20z"/>
<path d="M902 1495 c0 -16 2 -22 5 -12 2 9 2 23 0 30 -3 6 -5 -1 -5 -18z"/>
<path d="M1330 1462 c0 -5 9 -17 21 -28 21 -19 21 -19 8 9 -12 26 -29 37 -29
19z"/>
<path d="M1200 1431 c0 -11 4 -22 9 -25 4 -3 6 6 3 19 -5 30 -12 33 -12 6z"/>
<path d="M896 1414 c-4 -14 -5 -28 -3 -31 3 -2 8 8 11 23 4 14 5 28 3 31 -3 2
-8 -8 -11 -23z"/>
</g>
</svg>
